<mxfile host="app.diagrams.net" modified="2022-10-29T12:49:16.089Z" agent="5.0 (Macintosh; Intel Mac OS X 10_15_7) AppleWebKit/537.36 (KHTML, like Gecko) Chrome/107.0.0.0 Safari/537.36" etag="4w_R6-8BjXPSfow3IBja" version="20.5.1" type="github">
  <diagram id="fhw_wIi06ZGNYjIY4_s1" name="페이지-1">
    <mxGraphModel dx="1566" dy="975" grid="1" gridSize="10" guides="1" tooltips="1" connect="1" arrows="1" fold="1" page="1" pageScale="1" pageWidth="827" pageHeight="1169" math="0" shadow="0">
      <root>
        <mxCell id="0" />
        <mxCell id="1" parent="0" />
        <mxCell id="5gLOo1jOrvhWAQoctUP--2" value="" style="sketch=0;outlineConnect=0;fontColor=#232F3E;gradientColor=none;fillColor=#232F3D;strokeColor=none;dashed=0;verticalLabelPosition=bottom;verticalAlign=top;align=center;html=1;fontSize=12;fontStyle=0;aspect=fixed;pointerEvents=1;shape=mxgraph.aws4.user;" vertex="1" parent="1">
          <mxGeometry x="226" y="473" width="78" height="78" as="geometry" />
        </mxCell>
        <mxCell id="5gLOo1jOrvhWAQoctUP--3" value="VPC" style="points=[[0,0],[0.25,0],[0.5,0],[0.75,0],[1,0],[1,0.25],[1,0.5],[1,0.75],[1,1],[0.75,1],[0.5,1],[0.25,1],[0,1],[0,0.75],[0,0.5],[0,0.25]];outlineConnect=0;gradientColor=none;html=1;whiteSpace=wrap;fontSize=12;fontStyle=0;container=1;pointerEvents=0;collapsible=0;recursiveResize=0;shape=mxgraph.aws4.group;grIcon=mxgraph.aws4.group_vpc;strokeColor=#248814;fillColor=none;verticalAlign=top;align=left;spacingLeft=30;fontColor=#AAB7B8;dashed=0;" vertex="1" parent="1">
          <mxGeometry x="490" y="294" width="730" height="436" as="geometry" />
        </mxCell>
        <mxCell id="5gLOo1jOrvhWAQoctUP--6" value="Availability zone" style="sketch=0;outlineConnect=0;gradientColor=none;html=1;whiteSpace=wrap;fontSize=12;fontStyle=0;shape=mxgraph.aws4.group;grIcon=mxgraph.aws4.group_availability_zone;strokeColor=#545B64;fillColor=none;verticalAlign=top;align=left;spacingLeft=30;fontColor=#545B64;dashed=1;" vertex="1" parent="5gLOo1jOrvhWAQoctUP--3">
          <mxGeometry x="80" y="47" width="630" height="353" as="geometry" />
        </mxCell>
        <mxCell id="5gLOo1jOrvhWAQoctUP--5" value="Public subnet" style="points=[[0,0],[0.25,0],[0.5,0],[0.75,0],[1,0],[1,0.25],[1,0.5],[1,0.75],[1,1],[0.75,1],[0.5,1],[0.25,1],[0,1],[0,0.75],[0,0.5],[0,0.25]];outlineConnect=0;gradientColor=none;html=1;whiteSpace=wrap;fontSize=12;fontStyle=0;container=1;pointerEvents=0;collapsible=0;recursiveResize=0;shape=mxgraph.aws4.group;grIcon=mxgraph.aws4.group_security_group;grStroke=0;strokeColor=#248814;fillColor=#E9F3E6;verticalAlign=top;align=left;spacingLeft=30;fontColor=#248814;dashed=0;" vertex="1" parent="5gLOo1jOrvhWAQoctUP--3">
          <mxGeometry x="120" y="76" width="560" height="290" as="geometry" />
        </mxCell>
        <mxCell id="5gLOo1jOrvhWAQoctUP--11" style="edgeStyle=orthogonalEdgeStyle;rounded=0;orthogonalLoop=1;jettySize=auto;html=1;" edge="1" parent="5gLOo1jOrvhWAQoctUP--5" source="5gLOo1jOrvhWAQoctUP--1" target="5gLOo1jOrvhWAQoctUP--9">
          <mxGeometry relative="1" as="geometry" />
        </mxCell>
        <mxCell id="5gLOo1jOrvhWAQoctUP--1" value="Amazon EC2" style="sketch=0;outlineConnect=0;fontColor=#232F3E;gradientColor=none;strokeColor=#ffffff;fillColor=#232F3E;dashed=0;verticalLabelPosition=middle;verticalAlign=bottom;align=center;html=1;whiteSpace=wrap;fontSize=10;fontStyle=1;spacing=3;shape=mxgraph.aws4.productIcon;prIcon=mxgraph.aws4.ec2;" vertex="1" parent="5gLOo1jOrvhWAQoctUP--5">
          <mxGeometry x="120" y="90" width="80" height="100" as="geometry" />
        </mxCell>
        <mxCell id="5gLOo1jOrvhWAQoctUP--9" value="" style="sketch=0;outlineConnect=0;fontColor=#232F3E;gradientColor=none;fillColor=#2E27AD;strokeColor=none;dashed=0;verticalLabelPosition=bottom;verticalAlign=top;align=center;html=1;fontSize=12;fontStyle=0;aspect=fixed;pointerEvents=1;shape=mxgraph.aws4.rds_instance;" vertex="1" parent="5gLOo1jOrvhWAQoctUP--5">
          <mxGeometry x="357" y="101" width="78" height="78" as="geometry" />
        </mxCell>
        <mxCell id="5gLOo1jOrvhWAQoctUP--10" value="" style="shape=image;html=1;verticalAlign=top;verticalLabelPosition=bottom;labelBackgroundColor=#ffffff;imageAspect=0;aspect=fixed;image=https://cdn2.iconfinder.com/data/icons/boxicons-logos/24/bxl-spring-boot-128.png" vertex="1" parent="5gLOo1jOrvhWAQoctUP--5">
          <mxGeometry x="130" y="200" width="70" height="70" as="geometry" />
        </mxCell>
        <mxCell id="5gLOo1jOrvhWAQoctUP--16" style="edgeStyle=orthogonalEdgeStyle;rounded=0;orthogonalLoop=1;jettySize=auto;html=1;" edge="1" parent="1" source="5gLOo1jOrvhWAQoctUP--8" target="5gLOo1jOrvhWAQoctUP--12">
          <mxGeometry relative="1" as="geometry" />
        </mxCell>
        <mxCell id="5gLOo1jOrvhWAQoctUP--8" value="Amazon S3" style="sketch=0;outlineConnect=0;fontColor=#232F3E;gradientColor=none;strokeColor=#ffffff;fillColor=#232F3E;dashed=0;verticalLabelPosition=middle;verticalAlign=bottom;align=center;html=1;whiteSpace=wrap;fontSize=10;fontStyle=1;spacing=3;shape=mxgraph.aws4.productIcon;prIcon=mxgraph.aws4.s3;" vertex="1" parent="1">
          <mxGeometry x="1248.25" y="320" width="80" height="100" as="geometry" />
        </mxCell>
        <mxCell id="5gLOo1jOrvhWAQoctUP--27" style="edgeStyle=orthogonalEdgeStyle;rounded=0;orthogonalLoop=1;jettySize=auto;html=1;fontSize=20;" edge="1" parent="1" source="5gLOo1jOrvhWAQoctUP--12" target="5gLOo1jOrvhWAQoctUP--9">
          <mxGeometry relative="1" as="geometry">
            <Array as="points">
              <mxPoint x="1190" y="115" />
              <mxPoint x="1190" y="510" />
            </Array>
          </mxGeometry>
        </mxCell>
        <mxCell id="5gLOo1jOrvhWAQoctUP--12" value="" style="outlineConnect=0;dashed=0;verticalLabelPosition=bottom;verticalAlign=top;align=center;html=1;shape=mxgraph.aws3.lambda;fillColor=#F58534;gradientColor=none;" vertex="1" parent="1">
          <mxGeometry x="1250" y="70" width="76.5" height="90" as="geometry" />
        </mxCell>
        <mxCell id="5gLOo1jOrvhWAQoctUP--14" value="&lt;font style=&quot;font-size: 20px;&quot;&gt;모델 학습&lt;/font&gt;" style="text;html=1;strokeColor=none;fillColor=none;align=center;verticalAlign=middle;whiteSpace=wrap;rounded=0;" vertex="1" parent="1">
          <mxGeometry x="1250" y="165" width="80" height="30" as="geometry" />
        </mxCell>
        <mxCell id="5gLOo1jOrvhWAQoctUP--15" value="" style="shape=image;html=1;verticalAlign=top;verticalLabelPosition=bottom;labelBackgroundColor=#ffffff;imageAspect=0;aspect=fixed;image=https://cdn1.iconfinder.com/data/icons/ionicons-fill-vol-2/512/logo-python-128.png" vertex="1" parent="1">
          <mxGeometry x="1326.5" y="110" width="70" height="70" as="geometry" />
        </mxCell>
        <mxCell id="5gLOo1jOrvhWAQoctUP--17" value="&lt;font style=&quot;font-size: 20px;&quot;&gt;모델 저장&lt;/font&gt;" style="text;html=1;strokeColor=none;fillColor=none;align=center;verticalAlign=middle;whiteSpace=wrap;rounded=0;" vertex="1" parent="1">
          <mxGeometry x="1248.25" y="420" width="80" height="30" as="geometry" />
        </mxCell>
        <mxCell id="5gLOo1jOrvhWAQoctUP--19" style="edgeStyle=orthogonalEdgeStyle;rounded=0;orthogonalLoop=1;jettySize=auto;html=1;fontSize=20;" edge="1" parent="1" source="5gLOo1jOrvhWAQoctUP--18" target="5gLOo1jOrvhWAQoctUP--12">
          <mxGeometry relative="1" as="geometry" />
        </mxCell>
        <mxCell id="5gLOo1jOrvhWAQoctUP--18" value="" style="outlineConnect=0;dashed=0;verticalLabelPosition=bottom;verticalAlign=top;align=center;html=1;shape=mxgraph.aws3.api_gateway;fillColor=#D9A741;gradientColor=none;fontSize=20;" vertex="1" parent="1">
          <mxGeometry x="920" y="68.5" width="76.5" height="93" as="geometry" />
        </mxCell>
        <mxCell id="5gLOo1jOrvhWAQoctUP--20" style="edgeStyle=orthogonalEdgeStyle;rounded=0;orthogonalLoop=1;jettySize=auto;html=1;fontSize=20;" edge="1" parent="1" source="5gLOo1jOrvhWAQoctUP--1" target="5gLOo1jOrvhWAQoctUP--18">
          <mxGeometry relative="1" as="geometry">
            <Array as="points">
              <mxPoint x="770" y="117" />
            </Array>
          </mxGeometry>
        </mxCell>
        <mxCell id="5gLOo1jOrvhWAQoctUP--22" style="edgeStyle=orthogonalEdgeStyle;rounded=0;orthogonalLoop=1;jettySize=auto;html=1;fontSize=20;" edge="1" parent="1" source="5gLOo1jOrvhWAQoctUP--21" target="5gLOo1jOrvhWAQoctUP--1">
          <mxGeometry relative="1" as="geometry" />
        </mxCell>
        <mxCell id="5gLOo1jOrvhWAQoctUP--21" value="" style="shape=image;html=1;verticalAlign=top;verticalLabelPosition=bottom;labelBackgroundColor=#ffffff;imageAspect=0;aspect=fixed;image=https://cdn1.iconfinder.com/data/icons/unicons-line-vol-5/24/react-128.png;fontSize=20;" vertex="1" parent="1">
          <mxGeometry x="304" y="446" width="128" height="128" as="geometry" />
        </mxCell>
        <mxCell id="5gLOo1jOrvhWAQoctUP--23" value="API gateway" style="text;html=1;strokeColor=none;fillColor=none;align=center;verticalAlign=middle;whiteSpace=wrap;rounded=0;fontSize=20;" vertex="1" parent="1">
          <mxGeometry x="928.25" y="30" width="60" height="30" as="geometry" />
        </mxCell>
        <mxCell id="5gLOo1jOrvhWAQoctUP--24" value="Lambda" style="text;html=1;strokeColor=none;fillColor=none;align=center;verticalAlign=middle;whiteSpace=wrap;rounded=0;fontSize=20;" vertex="1" parent="1">
          <mxGeometry x="1258.25" y="30" width="60" height="30" as="geometry" />
        </mxCell>
      </root>
    </mxGraphModel>
  </diagram>
</mxfile>
